<?xml version="1.0" encoding="UTF-8" standalone="no"?>
<svg
   t="1779265837677"
   class="icon"
   viewBox="0 0 1024 1024"
   version="1.1"
   p-id="5566"
   width="256"
   height="256"
   id="svg4"
   sodipodi:docname="木鱼棍.svg"
   xmlns:inkscape="http://www.inkscape.org/namespaces/inkscape"
   xmlns:sodipodi="http://sodipodi.sourceforge.net/DTD/sodipodi-0.dtd"
   xmlns="http://www.w3.org/2000/svg"
   xmlns:svg="http://www.w3.org/2000/svg">
  <defs
     id="defs4" />
  <sodipodi:namedview
     id="namedview4"
     pagecolor="#ffffff"
     bordercolor="#000000"
     borderopacity="0.25"
     inkscape:showpageshadow="2"
     inkscape:pageopacity="0.0"
     inkscape:pagecheckerboard="0"
     inkscape:deskcolor="#d1d1d1" />
  <path
     d="m 587.70197,412.25851 12.06597,14.47917 c 7.23958,8.84837 2.41319,24.93634 -10.45718,37.00231 L 235.37561,791.13001 c -14.47917,13.67476 -34.58912,16.89236 -42.6331,7.23958 l -40.2199,-48.26389 c -8.04399,-9.65277 -1.6088,-28.15393 14.47916,-40.2199 L 549.09086,416.2805 c 14.47917,-11.26157 31.37153,-12.87037 38.61111,-4.02199 z"
     fill="#2c2c2c"
     p-id="5567"
     id="path1" />
  <path
     d="m 556.07967,381.25632 a 56.307866,30.567127 54.997 1 0 64.59856,92.24602 56.307866,30.567127 54.997 1 0 -64.59856,-92.24602 z"
     fill="#2c2c2c"
     p-id="5568"
     id="path2" />
  <path
     d="m 133.2742,741.64939 a 52.285875,24.936341 49.998 1 0 67.22022,80.10426 52.285875,24.936341 49.998 1 0 -67.22022,-80.10426 z"
     fill="#2c2c2c"
     p-id="5569"
     id="path3" />
  <path
     d="m 824.195,380.88699 c -76.41781,125.4861 -190.64234,81.2442 -230.05785,31.37152 -41.8287,-53.09027 -53.09027,-186.62035 109.39814,-227.64466 134.33448,-33.78472 149.61804,10.45718 149.61804,10.45718 0,0 57.11227,44.24189 -28.95833,185.81596 z"
     fill="#2c2c2c"
     p-id="5570"
     id="path4" />
</svg>
